<?xml version="1.0" encoding="utf-8"?>
<!-- Generator: Adobe Illustrator 24.0.2, SVG Export Plug-In . SVG Version: 6.00 Build 0)  -->
<svg version="1.1" id="Layer_1" xmlns="http://www.w3.org/2000/svg" xmlns:xlink="http://www.w3.org/1999/xlink" x="0px" y="0px"
	 viewBox="0 0 512 384" style="enable-background:new 0 0 512 384;" xml:space="preserve">
<path d="M264,225.5v-11.7c0-0.6-0.2-1.1-0.6-1.5c-0.4-0.4-0.9-0.6-1.4-0.6H250c-0.5,0-1,0.2-1.4,0.6s-0.6,0.9-0.6,1.5v11.7
	c0,0.6,0.2,1.1,0.6,1.5s0.9,0.6,1.4,0.6H262c0.5,0,1-0.2,1.4-0.6C263.8,226.6,264,226.1,264,225.5z M263.8,202.4l1.1-28.3
	c0-0.5-0.2-0.9-0.6-1.2c-0.5-0.5-1-0.7-1.5-0.7h-13.7c-0.5,0-1,0.2-1.5,0.7c-0.4,0.3-0.6,0.7-0.6,1.3l1.1,28.2c0,0.4,0.2,0.8,0.6,1
	c0.4,0.3,0.9,0.4,1.5,0.4h11.5c0.6,0,1.1-0.1,1.5-0.4S263.8,202.8,263.8,202.4z M263,144.8l47.8,86.9c1.5,2.6,1.4,5.2-0.1,7.8
	c-0.7,1.2-1.7,2.1-2.9,2.8c-1.2,0.7-2.5,1-3.9,1h-95.5c-1.4,0-2.7-0.3-3.9-1c-1.2-0.7-2.2-1.6-2.9-2.8c-1.5-2.6-1.6-5.2-0.1-7.8
	l47.8-86.9c0.7-1.3,1.7-2.3,2.9-3c1.2-0.7,2.6-1.1,4-1.1s2.8,0.4,4,1.1C261.3,142.5,262.3,143.5,263,144.8z"/>
<rect x="4" y="4" width="5.4" height="100.8"/>
<rect x="502.6" y="4" width="5.4" height="100.8"/>
<rect x="502.6" y="279.2" width="5.4" height="100.8"/>
<rect x="4" y="279.2" width="5.4" height="100.8"/>
<rect x="454.9" y="-43.7" transform="matrix(-4.193273e-07 -1 1 -4.193273e-07 450.9051 464.305)" width="5.4" height="100.8"/>
<rect x="51.7" y="-43.7" transform="matrix(-4.193273e-07 -1 1 -4.193273e-07 47.6949 61.0953)" width="5.4" height="100.8"/>
<rect x="51.7" y="326.9" transform="matrix(-4.193273e-07 -1 1 -4.193273e-07 -322.9048 431.6953)" width="5.4" height="100.8"/>
<rect x="454.9" y="326.9" transform="matrix(-4.193273e-07 -1 1 -4.193273e-07 80.3053 834.9049)" width="5.4" height="100.8"/>
</svg>
