<?xml version="1.0" encoding="utf-8"?>
<!-- Generator: Adobe Illustrator 24.1.1, SVG Export Plug-In . SVG Version: 6.00 Build 0)  -->
<svg version="1.1" id="Layer_1" xmlns="http://www.w3.org/2000/svg" xmlns:xlink="http://www.w3.org/1999/xlink" x="0px" y="0px"
	 viewBox="0 0 512 384" style="enable-background:new 0 0 512 384;" xml:space="preserve">
<rect x="4" y="4" class="st0" width="5.4" height="100.8"/>
<rect x="502.6" y="4" class="st0" width="5.4" height="100.8"/>
<rect x="502.6" y="279.2" class="st0" width="5.4" height="100.8"/>
<rect x="4" y="279.2" class="st0" width="5.4" height="100.8"/>
<rect x="407.2" y="4" class="st0" width="100.8" height="5.4"/>
<rect x="4" y="4" class="st0" width="100.8" height="5.4"/>
<rect x="4" y="374.6" class="st0" width="100.8" height="5.4"/>
<rect x="407.2" y="374.6" class="st0" width="100.8" height="5.4"/>
<g>
	<path class="st0" d="M431,155.8v68.6l-10.3-2.7c0.8-0.5,1.5-1.1,2.1-1.8c3-3,4.4-6.6,4.4-10.8v-9.8c0-4.2-1.5-7.8-4.4-10.8
		c-3-3-6.6-4.5-10.8-4.5H387v-5.5h40.3v-19.6h-44.7c-4.2,0-7.8,1.5-10.8,4.5c-3,3-4.5,6.6-4.5,10.8v9.8c0,4.2,1.5,7.8,4.5,10.8
		c3,3,6.6,4.4,10.8,4.4h25.1v5.5h-40.3v3.1l-25.6-6.6v-22.7h20.2v-19.6h-59.9v19.6h20.2v17.6l-25.6-6.6v-30.6H277v25h-1.8l-18.9-4.9
		v-20.1h-19.6v15.1l-5.5-1.4v-13.7h-44.7c-1.7,0-3.4,0.3-5.1,0.8l-15.7-4H431z"/>
	<path class="st0" d="M140.9,209.1c0,4.2-1.5,7.8-4.4,10.8c-3,3-6.6,4.4-10.8,4.4H81v-19.6h40.3v-5.5H96.2c-4.2,0-7.8-1.5-10.8-4.4
		c-3-3-4.4-6.6-4.4-10.8v-9.8c0-4.2,1.5-7.8,4.4-10.8c3-3,6.6-4.5,10.8-4.4h44.7v19.6h-40.3v5.5h25.1c4.2,0,7.8,1.5,10.8,4.5
		c3,3,4.4,6.6,4.4,10.8L140.9,209.1z"/>
	<path class="st0" d="M190.9,178.7v26.2h20.7v-5.5H203v-15.3h28.3v25c0,4.2-1.5,7.8-4.4,10.8c-3,3-6.6,4.4-10.8,4.4h-29.4
		c-4.2,0-7.8-1.5-10.8-4.4c-3-3-4.4-6.6-4.4-10.8v-34.9c0-4.2,1.5-7.8,4.4-10.8c0.9-0.9,1.8-1.6,2.8-2.3l52.6,13.6v3.8H190.9z"/>
	<polygon class="st0" points="296.6,191.8 296.6,224.4 277,224.4 277,199.4 256.3,199.4 256.3,224.4 236.7,224.4 236.7,176.3 
		256.3,181.4 256.3,184.1 266.9,184.1 	"/>
	<polygon class="st0" points="341.8,203.5 341.8,224.4 322.2,224.4 322.2,198.4 	"/>
	<path class="st0" d="M418.1,223.2c-1.9,0.8-4,1.2-6,1.2h-44.7v-14.3L418.1,223.2z"/>
	<path class="st0" d="M165.9,220.8l-2.5-53.2l1.6-8.5h-3.2v-8.4h1.3v-0.8H162v-2.5c0-2.5-2.1-4.6-4.6-4.6v-1.2h-0.6v-1.2l-0.4-0.1
		l-0.3-7l-0.3,7l-0.4,0.1v1.2h-0.6v1.2c-2.5,0-4.6,2.1-4.6,4.6v2.4h-1.1v0.8h1.3v8.4h-3.2l1.6,8.5l-2.5,53.2h-4.6v3.6h28.7v-3.6
		H165.9z M153.9,159.3h-2.2v-6.9h2.2V159.3z M157.3,159.3h-2.2v-6.9h2.2L157.3,159.3z M160.7,159.3h-2.2v-6.9h2.2L160.7,159.3z"/>
	<path class="st0" d="M431,155.8v68.6l-10.3-2.7c0.8-0.5,1.5-1.1,2.1-1.8c3-3,4.4-6.6,4.4-10.8v-9.8c0-4.2-1.5-7.8-4.4-10.8
		c-3-3-6.6-4.5-10.8-4.5H387v-5.5h40.3v-19.6h-44.7c-4.2,0-7.8,1.5-10.8,4.5c-3,3-4.5,6.6-4.5,10.8v9.8c0,4.2,1.5,7.8,4.5,10.8
		c3,3,6.6,4.4,10.8,4.4h25.1v5.5h-40.3v3.1l-25.6-6.6v-22.7h20.2v-19.6h-59.9v19.6h20.2v17.6l-25.6-6.6v-30.6H277v25h-1.8l-18.9-4.9
		v-20.1h-19.6v15.1l-5.5-1.4v-13.7h-44.7c-1.7,0-3.4,0.3-5.1,0.8l-15.7-4H431z"/>
	<path class="st0" d="M140.9,209.1c0,4.2-1.5,7.8-4.4,10.8c-3,3-6.6,4.4-10.8,4.4H81v-19.6h40.3v-5.5H96.2c-4.2,0-7.8-1.5-10.8-4.4
		c-3-3-4.4-6.6-4.4-10.8v-9.8c0-4.2,1.5-7.8,4.4-10.8c3-3,6.6-4.5,10.8-4.4h44.7v19.6h-40.3v5.5h25.1c4.2,0,7.8,1.5,10.8,4.5
		c3,3,4.4,6.6,4.4,10.8L140.9,209.1z"/>
	<path class="st0" d="M190.9,178.7v26.2h20.7v-5.5H203v-15.3h28.3v25c0,4.2-1.5,7.8-4.4,10.8c-3,3-6.6,4.4-10.8,4.4h-29.4
		c-4.2,0-7.8-1.5-10.8-4.4c-3-3-4.4-6.6-4.4-10.8v-34.9c0-4.2,1.5-7.8,4.4-10.8c0.9-0.9,1.8-1.6,2.8-2.3l52.6,13.6v3.8H190.9z"/>
	<polygon class="st0" points="296.6,191.8 296.6,224.4 277,224.4 277,199.4 256.3,199.4 256.3,224.4 236.7,224.4 236.7,176.3 
		256.3,181.4 256.3,184.1 266.9,184.1 	"/>
	<polygon class="st0" points="341.8,203.5 341.8,224.4 322.2,224.4 322.2,198.4 	"/>
	<path class="st0" d="M418.1,223.2c-1.9,0.8-4,1.2-6,1.2h-44.7v-14.3L418.1,223.2z"/>
	<path class="st0" d="M165.9,220.8l-2.5-53.2l1.6-8.5h-3.2v-8.4h1.3v-0.8H162v-2.5c0-2.5-2.1-4.6-4.6-4.6v-1.2h-0.6v-1.2l-0.4-0.1
		l-0.3-7l-0.3,7l-0.4,0.1v1.2h-0.6v1.2c-2.5,0-4.6,2.1-4.6,4.6v2.4h-1.1v0.8h1.3v8.4h-3.2l1.6,8.5l-2.5,53.2h-4.6v3.6h28.7v-3.6
		H165.9z M153.9,159.3h-2.2v-6.9h2.2V159.3z M157.3,159.3h-2.2v-6.9h2.2L157.3,159.3z M160.7,159.3h-2.2v-6.9h2.2L160.7,159.3z"/>
</g>
</svg>
