<svg id="Layer_1" data-name="Layer 1" xmlns="http://www.w3.org/2000/svg" viewBox="0 0 3190.37 1000"><defs><style>.cls-1{fill:#fffcfa;}.cls-2{fill:#f47920;}.cls-3{fill:none;}</style></defs><title>sights</title><path class="cls-1" d="M3011.69,312.44V867.55L2928.38,846a127.81,127.81,0,0,0,17.15-14.46q36-36.49,36-87.57v-79q0-51.12-36-87.11c-24-24.33-53.14-36.44-87.23-36.44H2655.36V497.21h326.16V338.67H2620.05q-51.14,0-87.12,36.11-36.16,36-36.11,87.11v79.5q0,51.12,36.11,87.56,36,36,87.12,36h203v44.18H2496.82v25.23l-207.31-53.6V497.21h163.14V338.67H1968V497.21h163.14V639.72l-207.32-53.6V338.67H1765.35V541.39h-14.47L1597.5,501.7v-163H1439.07v122.1l-44.17-11.43V338.67H1033.42a127.82,127.82,0,0,0-40.93,6.51L865.8,312.44Z"/><path class="cls-1" d="M663.39,744q0,51.15-36,87.56-36,36-87.18,36H178.68V709.12H504.92V665h-203q-51.15,0-87.18-36-36-36.42-36-87.57V461.92q0-51.15,36-87.18t87.18-36H663.39V497.18H337.15v44.17h203q51.15,0,87.18,36.42,36,36,36,87.18Z"/><path class="cls-1" d="M1068.62,497.21V709.12h167.85V664.94H1166V541.39h229V744q0,51.13-36,87.57-36.17,36-87.23,36H1033.42q-51.13,0-87.23-36-36-36.49-36-87.57V461.89q0-51.12,36-87.11a128.31,128.31,0,0,1,22.87-18.28L1394.9,466.6v30.61Z"/><polygon class="cls-1" points="1923.77 603.5 1923.77 867.55 1765.35 867.55 1765.35 664.95 1597.5 664.95 1597.5 867.55 1439.07 867.55 1439.07 478.04 1597.5 519.08 1597.5 541.39 1683.72 541.39 1923.77 603.5"/><polygon class="cls-1" points="2289.51 698.13 2289.51 867.55 2131.09 867.55 2131.09 657.1 2289.51 698.13"/><path class="cls-1" d="M2907.19,857.91a123.09,123.09,0,0,1-48.89,9.64H2496.82V751.73Z"/><path class="cls-1" d="M866.05,838.64,846.17,408.32l13.34-68.58H833.37V272h10.24v-6.14h-9.1V246a37.3,37.3,0,0,0-37.28-37.28V199.2h-4.55v-9.31l-3.26-1.21-2.19-56.27L785,188.68l-3.25,1.21v9.31h-4.51v9.56A37.31,37.31,0,0,0,739.91,246v19.79h-9.07V272h10.21v67.77H714.91l13.33,68.58L708.4,838.64H670.92v28.94H903.5V838.64ZM768.73,340.19H750.52V284.66h18.21Zm27.6,0H778.12V284.66h18.21Zm27.57,0H805.72V284.66H823.9Z"/><path class="cls-2" d="M3011.69,312.44V867.55L2928.38,846a127.81,127.81,0,0,0,17.15-14.46q36-36.49,36-87.57v-79q0-51.12-36-87.11c-24-24.33-53.14-36.44-87.23-36.44H2655.36V497.21h326.16V338.67H2620.05q-51.14,0-87.12,36.11-36.16,36-36.11,87.11v79.5q0,51.12,36.11,87.56,36,36,87.12,36h203v44.18H2496.82v25.23l-207.31-53.6V497.21h163.14V338.67H1968V497.21h163.14V639.72l-207.32-53.6V338.67H1765.35V541.39h-14.47L1597.5,501.7v-163H1439.07v122.1l-44.17-11.43V338.67H1033.42a127.82,127.82,0,0,0-40.93,6.51L865.8,312.44Z"/><path class="cls-2" d="M663.39,744q0,51.15-36,87.56-36,36-87.18,36H178.68V709.12H504.92V665h-203q-51.15,0-87.18-36-36-36.42-36-87.57V461.92q0-51.15,36-87.18t87.18-36H663.39V497.18H337.15v44.17h203q51.15,0,87.18,36.42,36,36,36,87.18Z"/><path class="cls-2" d="M1068.62,497.21V709.12h167.85V664.94H1166V541.39h229V744q0,51.13-36,87.57-36.17,36-87.23,36H1033.42q-51.13,0-87.23-36-36-36.49-36-87.57V461.89q0-51.12,36-87.11a128.31,128.31,0,0,1,22.87-18.28L1394.9,466.6v30.61Z"/><polygon class="cls-2" points="1923.77 603.5 1923.77 867.55 1765.35 867.55 1765.35 664.95 1597.5 664.95 1597.5 867.55 1439.07 867.55 1439.07 478.04 1597.5 519.08 1597.5 541.39 1683.72 541.39 1923.77 603.5"/><polygon class="cls-2" points="2289.51 698.13 2289.51 867.55 2131.09 867.55 2131.09 657.1 2289.51 698.13"/><path class="cls-2" d="M2907.19,857.91a123.09,123.09,0,0,1-48.89,9.64H2496.82V751.73Z"/><path class="cls-2" d="M866.05,838.64,846.17,408.32l13.34-68.58H833.37V272h10.24v-6.14h-9.1V246a37.3,37.3,0,0,0-37.28-37.28V199.2h-4.55v-9.31l-3.26-1.21-2.19-56.27L785,188.68l-3.25,1.21v9.31h-4.51v9.56A37.31,37.31,0,0,0,739.91,246v19.79h-9.07V272h10.21v67.77H714.91l13.33,68.58L708.4,838.64H670.92v28.94H903.5V838.64ZM768.73,340.19H750.52V284.66h18.21Zm27.6,0H778.12V284.66h18.21Zm27.57,0H805.72V284.66H823.9Z"/><rect class="cls-3" width="3190.37" height="1000"/></svg>