<svg xmlns="http://www.w3.org/2000/svg" width="16" height="16" viewBox="0 0 24.42 24"><defs><style>.cls-1{fill:#e6603d;}.cls-2{fill:#bdc3c7;}.cls-3{fill:#ecf0f1;}.cls-4{fill:#c0632b;}.cls-5{fill:#e74c3c;}.cls-6{fill:#e77c3c;}.cls-7{fill:#fff;}.cls-8{fill:#c0392b;}.cls-9{fill:#e53d47;}.cls-10{fill:#ebeded;}.cls-11{fill:#bf2c34;}.cls-12{fill:#c14f31;}.cls-13{fill:#e6613d;}.cls-14{fill:none;}.cls-15{fill:#c1c1c1;}</style></defs><title>Logo</title><g id="Layer_1" data-name="Layer 1"><path class="cls-1" d="M10,16.618c-.227-.033-.377-.211-.566-.315a4.124,4.124,0,0,1-1.308-1.124,5.957,5.957,0,0,1-.721-1.2,3.24,3.24,0,0,1-.363-1.154c-.01-.2-.057-.406-.081-.611a1.107,1.107,0,0,1,.172-.584c.316-.727.648-1.448.968-2.173s.632-1.468.96-2.2c.163-.365.317-.733.474-1.1.023-.054.035-.124.112-.137a.206.206,0,0,1,.059.189,3.55,3.55,0,0,0,1.413,3.154,2.974,2.974,0,0,0,1.689.611.128.128,0,0,1,.135.127.383.383,0,0,0-.1.178,9.2,9.2,0,0,1-.431,1.012q-.356.791-.7,1.585-.252.582-.512,1.16c-.188.418-.382.832-.569,1.25-.146.328-.274.666-.435.987C10.13,16.387,10.15,16.554,10,16.618Z"/><path class="cls-2" d="M23.98,11.38c.01.21.02.41.02.62a12.039,12.039,0,0,1-.73,4.13c-.05.12-.09.25-.15.37h-.01l-1.31-.58a11.992,11.992,0,0,0,2.11-5.4c.02.14.03.28.04.42A3.253,3.253,0,0,1,23.98,11.38Z"/><path class="cls-2" d="M23.95,10.94a3.253,3.253,0,0,1,.03.44A3.253,3.253,0,0,0,23.95,10.94Z"/><path class="cls-3" d="M23.09,7.41a11.6,11.6,0,0,1,.82,3.11,11.992,11.992,0,0,1-2.11,5.4l-.05-.02c-.01.01-.01.02-.02.03l-5.07-2.11A5.03,5.03,0,0,0,17,12a4.914,4.914,0,0,0-.24-1.54,4.051,4.051,0,0,0,.12-.47Z"/><path class="cls-3" d="M23.12,16.5c.06-.12.1-.25.15-.37a10.955,10.955,0,0,1-1.32,2.57,10.215,10.215,0,0,0,.68-1.15,3.713,3.713,0,0,0,.26-.53A4.829,4.829,0,0,0,23.12,16.5Z"/><path class="cls-4" d="M23.12,16.5c-.07.18-.15.35-.23.52s-.17.35-.26.53c-.13.23-.26.46-.4.68a12.258,12.258,0,0,0,.88-1.73Z"/><path class="cls-4" d="M22.89,17.02c.08-.17.16-.34.23-.52A4.829,4.829,0,0,1,22.89,17.02Z"/><path class="cls-2" d="M21.8,15.92l1.31.58-1.33-.55C21.78,15.94,21.79,15.93,21.8,15.92Z"/><path class="cls-5" d="M23.11,7.4l-.02.01a11.008,11.008,0,0,0-.76-1.54A11.6,11.6,0,0,1,23.11,7.4Z"/><path class="cls-4" d="M21.78,15.95l1.33.55a12.258,12.258,0,0,1-.88,1.73c-.07.12-.14.23-.21.35-.2.29-.41.59-.63.88a.481.481,0,0,0-.09.11c-.01.01-.03.02-.03.04,0,0-.02.01-.02.02a1.063,1.063,0,0,0-.09.11c-.09.1-.18.2-.26.3-.01.01-.02.01-.01.02-.14.14-.27.28-.4.42l-.01.01-.01.01-.01.01c-.14.13-.28.26-.43.39a12.82,12.82,0,0,1-3.5,2.2l-1.06-2.6c.12-.04.24-.08.36-.13a6.46,6.46,0,0,0,.69-.26c.27-.11.54-.23.8-.36a9.166,9.166,0,0,0,.87-.48.435.435,0,0,1,.07-.04A11.973,11.973,0,0,0,21.78,15.95Z"/><path class="cls-6" d="M23.09,7.41,16.88,9.99A4.066,4.066,0,0,0,17,9a5,5,0,0,0-2.11-4.08V4.91L16.53.9c.15.05.29.11.44.17a1.281,1.281,0,0,1,.24.11,11.925,11.925,0,0,1,4.74,4.11c.09.12.17.25.26.38.04.06.08.13.12.2A11.008,11.008,0,0,1,23.09,7.41Z"/><path class="cls-2" d="M22.63,17.55c.09-.18.18-.35.26-.53A3.713,3.713,0,0,1,22.63,17.55Z"/><path class="cls-2" d="M22.23,18.23c.14-.22.27-.45.4-.68a10.215,10.215,0,0,1-.68,1.15v.01c-.09.13-.18.25-.27.37.12-.17.23-.34.34-.5C22.09,18.46,22.16,18.35,22.23,18.23Z"/><path class="cls-5" d="M22.21,5.67c-.09-.13-.17-.26-.26-.38A3.194,3.194,0,0,1,22.21,5.67Z"/><path class="cls-5" d="M22.02,18.58c-.11.16-.22.33-.34.5-.09.12-.19.25-.29.38C21.61,19.17,21.82,18.87,22.02,18.58Z"/><path class="cls-3" d="M21.68,19.08c.09-.12.18-.24.27-.37a8.708,8.708,0,0,1-.64.86,1.047,1.047,0,0,1,.08-.11C21.49,19.33,21.59,19.2,21.68,19.08Z"/><path class="cls-3" d="M21.8,15.92c-.01.01-.02.02-.02.03l-.05-.02c.01-.01.01-.02.02-.03Z"/><path class="cls-4" d="M21.73,15.93l.05.02a11.973,11.973,0,0,1-3.52,3.28A11.856,11.856,0,0,0,21.73,15.93Z"/><path class="cls-6" d="M16.66,13.82l5.07,2.11a11.856,11.856,0,0,1-3.47,3.3.435.435,0,0,0-.07.04q-.42.255-.87.48a6.329,6.329,0,0,1-.8.36,6.46,6.46,0,0,1-.69.26l-.36.12-1.58-3.86A5.061,5.061,0,0,0,16.66,13.82Z"/><path class="cls-5" d="M21.39,19.46a1.047,1.047,0,0,0-.08.11H21.3A.481.481,0,0,1,21.39,19.46Z"/><path class="cls-3" d="M21.31,19.57a.133.133,0,0,1-.05.06.035.035,0,0,1,.01-.02Z"/><path class="cls-5" d="M21.31,19.57l-.04.04c0-.02.02-.03.03-.04Z"/><path class="cls-5" d="M21.27,19.61a.035.035,0,0,0-.01.02h-.01C21.25,19.62,21.27,19.61,21.27,19.61Z"/><path class="cls-2" d="M21.26,19.63v.01l-.1.1a1.063,1.063,0,0,1,.09-.11Z"/><path class="cls-3" d="M21.26,19.64c-.11.14-.23.27-.35.4.09-.1.17-.2.25-.3Z"/><path class="cls-5" d="M21.16,19.74c-.08.1-.16.2-.25.3H20.9C20.98,19.94,21.07,19.84,21.16,19.74Z"/><path class="cls-5" d="M20.91,20.04l-.02.02c-.01-.01,0-.01.01-.02Z"/><path class="cls-5" d="M20.89,20.06c-.13.14-.26.28-.4.42C20.62,20.34,20.75,20.2,20.89,20.06Z"/><path class="cls-5" d="M20.49,20.48l-.01.01Z"/><polygon class="cls-5" points="20.48 20.49 20.48 20.5 20.47 20.5 20.48 20.49"/><path class="cls-5" d="M20.47,20.5l-.01.01Z"/><path class="cls-5" d="M20.46,20.51l-.14.14c-.09.08-.19.17-.29.25C20.18,20.77,20.32,20.64,20.46,20.51Z"/><path class="cls-2" d="M20.03,20.9c.1-.08.2-.17.29-.25a12.038,12.038,0,0,1-1.61,1.3c-.31.21-.64.41-.98.6a12.8,12.8,0,0,1-1.6.72,12.048,12.048,0,0,1-8.26,0,12.8,12.8,0,0,1-1.6-.72c-.34-.19-.67-.39-.98-.6s-.59-.42-.87-.66A12.925,12.925,0,0,0,7.47,23.1l1.06-2.61a12.06,12.06,0,0,0,6.94,0v.01l1.06,2.6A12.82,12.82,0,0,0,20.03,20.9Z"/><path class="cls-3" d="M18.71,21.95a12.038,12.038,0,0,0,1.61-1.3A10.65,10.65,0,0,1,18.71,21.95Z"/><path class="cls-3" d="M17.73,22.55c.34-.19.67-.39.98-.6A8.851,8.851,0,0,1,17.73,22.55Z"/><path class="cls-6" d="M17.32,19.75q.45-.225.87-.48A9.166,9.166,0,0,1,17.32,19.75Z"/><path class="cls-5" d="M20.48,3.5a12.214,12.214,0,0,0-3.27-2.32A10.328,10.328,0,0,1,20.48,3.5Z"/><path class="cls-6" d="M16.52,20.11a6.329,6.329,0,0,0,.8-.36C17.06,19.88,16.79,20,16.52,20.11Z"/><path class="cls-3" d="M16.97,1.07c-.15-.06-.29-.12-.44-.17L14.89,4.91a5.044,5.044,0,0,0-5.78,0L7.47.9c-.15.05-.29.11-.44.17a12.077,12.077,0,0,1,9.94,0Z"/><path class="cls-4" d="M17,9a4.066,4.066,0,0,1-.12.99l-.25.11c-.05-.11-.1-.22-.16-.33a4.088,4.088,0,0,0-.32-.57,4.646,4.646,0,0,0-.62-.8,3.808,3.808,0,0,0-1.14-.8c-.01,0-.02-.01-.04-.01a.2.2,0,0,0-.08-.04c-.12-.06-.25-.12-.38-.18l1-2.45A5,5,0,0,1,17,9Z"/><path class="cls-2" d="M16.63,10.1l.25-.11a4.051,4.051,0,0,1-.12.47C16.72,10.34,16.68,10.22,16.63,10.1Z"/><path class="cls-7" d="M16.63,10.1c.05.12.09.24.13.36,0,.01-.01.03-.01.04a5.063,5.063,0,0,0-2.4-2.91c.02,0,.03.01.04.01a5.1,5.1,0,0,1,1.76,1.6,4.088,4.088,0,0,1,.32.57l.15.33Z"/><path class="cls-3" d="M16.13,23.27a12.8,12.8,0,0,0,1.6-.72A11.5,11.5,0,0,1,16.13,23.27Z"/><path class="cls-6" d="M16.62,13.8l.04.02a5.061,5.061,0,0,1-2.77,2.81l-.01-.03a5.67,5.67,0,0,0,1.65-1.1A5.356,5.356,0,0,0,16.62,13.8Z"/><path class="cls-8" d="M16.63,10.1h-.01l-.15-.33C16.53,9.88,16.58,9.99,16.63,10.1Z"/><path class="cls-4" d="M15.53,8.4a4.646,4.646,0,0,1,.62.8,5.1,5.1,0,0,0-1.76-1.6A3.808,3.808,0,0,1,15.53,8.4Z"/><path class="cls-6" d="M15.83,20.37c-.12.05-.24.09-.36.13v-.01Z"/><path class="cls-3" d="M13.89,16.63l1.58,3.86a12.06,12.06,0,0,1-6.94,0l1.58-3.86a5.012,5.012,0,0,0,3.78,0Z"/><path class="cls-2" d="M14.89,4.91v.01l-1,2.45c-.1-.04-.2-.07-.3-.11-.13-.04-.25-.08-.38-.11-.11-.03-.23-.05-.34-.07a4.771,4.771,0,0,0-1.74,0c-.11.02-.23.04-.34.07-.13.03-.25.07-.38.11-.1.04-.2.07-.3.11l-1-2.45V4.91a5.044,5.044,0,0,1,5.78,0Z"/><path class="cls-7" d="M13.89,7.37c.13.06.26.12.38.18a3.121,3.121,0,0,0-.39-.15Z"/><path class="cls-2" d="M13.59,7.26c-.12-.04-.25-.08-.38-.11C13.34,7.18,13.46,7.22,13.59,7.26Z"/><path class="cls-2" d="M13.21,7.15a3.4,3.4,0,0,0-.34-.07C12.98,7.1,13.1,7.12,13.21,7.15Z"/><path class="cls-2" d="M11.13,7.08a3.4,3.4,0,0,0-.34.07C10.9,7.12,11.02,7.1,11.13,7.08Z"/><path class="cls-2" d="M10.79,7.15c-.13.03-.26.07-.38.11C10.54,7.22,10.66,7.18,10.79,7.15Z"/><path class="cls-7" d="M10.11,7.37l.01.03a3.121,3.121,0,0,0-.39.15C9.85,7.49,9.98,7.43,10.11,7.37Z"/><path class="cls-6" d="M10.12,16.6l-.01.03a5.061,5.061,0,0,1-2.77-2.81l.04-.02a5.157,5.157,0,0,0,1.08,1.7A5.853,5.853,0,0,0,10.12,16.6Z"/><path class="cls-4" d="M10.11,7.37c-.13.06-.26.12-.38.18a.2.2,0,0,0-.08.04c-.02,0-.03.01-.04.01a3.979,3.979,0,0,0-1.15.8A5.3,5.3,0,0,0,7.6,9.62a1.009,1.009,0,0,0-.07.15c-.06.11-.11.22-.16.33l-.25-.11A4.066,4.066,0,0,1,7,9,5,5,0,0,1,9.11,4.92Z"/><path class="cls-6" d="M10.11,16.63,8.53,20.49a12.03,12.03,0,0,1-6.31-4.55l5.12-2.12A5.061,5.061,0,0,0,10.11,16.63Z"/><path class="cls-7" d="M9.61,7.6c.01,0,.02-.01.04-.01a5.063,5.063,0,0,0-2.4,2.91c0-.01-.01-.03-.01-.04.04-.12.08-.24.13-.36h.01a2.408,2.408,0,0,1,.15-.33,1.009,1.009,0,0,1,.07-.15A5.073,5.073,0,0,1,9.61,7.6Z"/><path class="cls-6" d="M9.11,4.91v.01A5,5,0,0,0,7,9a4.066,4.066,0,0,0,.12.99L.91,7.41a11.95,11.95,0,0,1,.82-1.64c.1-.16.21-.33.32-.48A11.924,11.924,0,0,1,6.79,1.18a1.281,1.281,0,0,1,.24-.11c.15-.06.29-.12.44-.17Z"/><path class="cls-4" d="M8.46,8.4a3.979,3.979,0,0,1,1.15-.8A5.073,5.073,0,0,0,7.6,9.62,5.3,5.3,0,0,1,8.46,8.4Z"/><path class="cls-4" d="M8.53,20.49,7.47,23.1a12.925,12.925,0,0,1-3.05-1.81c0-.01-.01,0-.01,0-.15-.13-.31-.26-.45-.39a1.738,1.738,0,0,1-.15-.13.864.864,0,0,1-.14-.13l-.16-.16c-.13-.13-.26-.27-.4-.41-.01-.01-.02-.02-.02-.03a3.309,3.309,0,0,1-.25-.3c-.04-.04-.07-.08-.1-.11a.265.265,0,0,1-.05-.06c-.13-.17-.25-.33-.37-.49a13.52,13.52,0,0,1-1.21-2.06c-.08-.17-.16-.34-.23-.52l1.34-.56A12.03,12.03,0,0,0,8.53,20.49Z"/><path class="cls-8" d="M7.53,9.77a2.408,2.408,0,0,0-.15.33H7.37C7.42,9.99,7.47,9.88,7.53,9.77Z"/><path class="cls-2" d="M7.12,9.99l.25.11c-.05.12-.09.24-.13.36A4.051,4.051,0,0,1,7.12,9.99Z"/><path class="cls-3" d="M7.34,13.82,2.22,15.94A11.982,11.982,0,0,1,.09,10.52,11.6,11.6,0,0,1,.91,7.41L7.12,9.99a4.051,4.051,0,0,0,.12.47A4.914,4.914,0,0,0,7,12,5.03,5.03,0,0,0,7.34,13.82Z"/><path class="cls-3" d="M6.27,22.55a12.8,12.8,0,0,0,1.6.72A11.5,11.5,0,0,1,6.27,22.55Z"/><path class="cls-3" d="M5.29,21.95c.31.21.64.41.98.6A8.851,8.851,0,0,1,5.29,21.95Z"/><path class="cls-4" d="M4.42,21.29c.28.24.57.45.87.66a10.5,10.5,0,0,1-1.48-1.18,1.738,1.738,0,0,0,.15.13,5.46,5.46,0,0,0,.45.39S4.42,21.28,4.42,21.29Z"/><path class="cls-8" d="M3.96,20.9c.14.13.3.26.45.39A5.46,5.46,0,0,1,3.96,20.9Z"/><path class="cls-6" d="M3.51,3.5A10.366,10.366,0,0,1,6.79,1.18,12.079,12.079,0,0,0,3.51,3.51Z"/><path class="cls-8" d="M3.51,20.48l.16.16c-.06-.05-.11-.1-.16-.15Z"/><path class="cls-8" d="M3.67,20.64a1.07,1.07,0,0,1-.16-.14v-.01C3.56,20.54,3.61,20.59,3.67,20.64Z"/><path class="cls-8" d="M3.11,20.07c.14.14.27.28.4.41a2.284,2.284,0,0,1-.22-.22C3.23,20.2,3.17,20.14,3.11,20.07Z"/><path class="cls-8" d="M3.51,20.48v.01a2.391,2.391,0,0,1-.22-.23A2.284,2.284,0,0,0,3.51,20.48Z"/><path class="cls-3" d="M2.84,19.74a3.309,3.309,0,0,0,.25.3c-.12-.13-.24-.26-.35-.4Z"/><path class="cls-8" d="M2.84,19.74l-.1-.1v-.01C2.77,19.66,2.8,19.7,2.84,19.74Z"/><path class="cls-3" d="M2.69,19.57a.265.265,0,0,0,.05.06A.133.133,0,0,1,2.69,19.57Z"/><path class="cls-3" d="M2.32,19.08c.12.16.24.32.37.49a8.708,8.708,0,0,1-.64-.86C2.14,18.84,2.23,18.96,2.32,19.08Z"/><path class="cls-2" d="M2.32,19.08c-.09-.12-.18-.24-.27-.37a1.4,1.4,0,0,0-.1-.16,10.8,10.8,0,0,1-.84-1.53A13.52,13.52,0,0,0,2.32,19.08Z"/><path class="cls-2" d="M2.22,15.94.88,16.5c-.06-.12-.1-.25-.15-.37A12.039,12.039,0,0,1,0,12c0-.21.01-.41.02-.62a3.253,3.253,0,0,1,.03-.44c.01-.14.02-.28.04-.42A11.982,11.982,0,0,0,2.22,15.94Z"/><path class="cls-5" d="M2.05,5.29c-.11.15-.22.32-.32.48A4,4,0,0,1,2.05,5.29Z"/><path class="cls-4" d="M1.11,17.02a10.8,10.8,0,0,0,.84,1.53A11.211,11.211,0,0,1,.73,16.13c.05.12.09.25.15.37A4.829,4.829,0,0,0,1.11,17.02Z"/><path class="cls-7" d="M.88,7.4a11.478,11.478,0,0,1,.85-1.63A11.95,11.95,0,0,0,.91,7.41Z"/><path class="cls-4" d="M.88,16.5c.07.18.15.35.23.52A4.829,4.829,0,0,1,.88,16.5Z"/><path class="cls-2" d="M.05,10.94a3.253,3.253,0,0,0-.03.44A3.253,3.253,0,0,1,.05,10.94Z"/></g><g id="Layer_2" data-name="Layer 2"><path class="cls-9" d="M18.519,16.9c.843.35,1.692.685,2.518,1.075l.089.031a.02.02,0,0,1,.016.023.161.161,0,0,1,.045.2c-.176.4-.347.8-.517,1.21-.024.058-.045.105-.118.093a10.281,10.281,0,0,1-1.046-.42c-.546-.235-1.1-.455-1.647-.685-.519-.218-1.034-.446-1.554-.66-.108-.044-.129-.1-.1-.2q.076-.3.156-.593l.288-1.062c.09-.33.175-.662.275-.989a.178.178,0,0,0-.027-.185q-.414-.557-.82-1.119c-.166-.232-.322-.471-.482-.706a.917.917,0,0,1,.109-.107c.818-.589,1.639-1.174,2.457-1.764.363-.261.72-.528,1.08-.792l.105.012a1.191,1.191,0,0,0,.079.15c.329.452.679.891.982,1.359.175.269.352.452.692.384.372.019.745.038,1.118.059.265.015.53.03.795.048a1.577,1.577,0,0,0,.423.012c.131-.026.167.092.237.159.012.189.022.378.036.567.021.29.045.579.066.868.027.365.052.729.078,1.094.022.308.043.617.07.926.029.348.061.7.1,1.043a.161.161,0,0,1-.166.205c-.142.014-.284.023-.425.037a2.9,2.9,0,0,0-.656.065.5.5,0,0,0-.118-.019c-.246.019-.249.02-.269-.225-.045-.551-.074-1.1-.134-1.652-.05-.456-.063-.913-.108-1.368.014-.087-.019-.114-.11-.13-.311-.053-.626-.026-.938-.062-.379-.043-.763-.012-1.141-.07a.379.379,0,0,0-.324.081,6.49,6.49,0,0,1-.627.454.648.648,0,0,0-.34.431,5.576,5.576,0,0,1-.15.545c-.106.4-.2.806-.316,1.205-.108.373-.112.38.273.467A.284.284,0,0,0,18.519,16.9Z"/><path class="cls-9" d="M14.8,3.288l.045.012.084.024.011,0v.011a.25.25,0,0,0,.129.131,1.935,1.935,0,0,1,.292.176,3.655,3.655,0,0,1,.839,1,3.126,3.126,0,0,1,.334,1.737c-.014.227-.067.451-.1.676a.344.344,0,0,0-.1.178,2.4,2.4,0,0,1-.312.592,3.06,3.06,0,0,1-1.7,1.2,3.026,3.026,0,0,1-2-.105,3.041,3.041,0,0,1-1.84-2.252A2.954,2.954,0,0,1,10.616,5a3.171,3.171,0,0,1,.522-.9,5.417,5.417,0,0,1,1.037-.776,3.06,3.06,0,0,1,.631-.246,2.806,2.806,0,0,1,1.276,0,3.318,3.318,0,0,1,.656.2Zm.15,2.784A1.479,1.479,0,1,0,13.5,7.536,1.462,1.462,0,0,0,14.947,6.072Z"/><path class="cls-10" d="M11.138,4.094a3.171,3.171,0,0,0-.522.9,2.954,2.954,0,0,0-.137,1.668,3.15,3.15,0,0,0,.252.763,3.1,3.1,0,0,0,1.588,1.489,3.026,3.026,0,0,0,2,.105,3.06,3.06,0,0,0,1.7-1.2,2.4,2.4,0,0,0,.312-.592.344.344,0,0,1,.1-.178l.077.039c-.068.054-.006.107.006.155a4.338,4.338,0,0,0,.363.815.1.1,0,0,1,0,.03c-.1-.02-.115.064-.149.116a3.792,3.792,0,0,1-.772.887,3.989,3.989,0,0,1-1.625.773c-.145-.007-.169-.153-.25-.229-.106-.1-.2-.111-.279-.02a5.17,5.17,0,0,0-.482.554l-.377-.074a.128.128,0,0,0-.135-.127,2.974,2.974,0,0,1-1.689-.611A3.55,3.55,0,0,1,9.7,6.208a.206.206,0,0,0-.059-.189,4.747,4.747,0,0,1,.386-.638,9.175,9.175,0,0,1,.6-.822,1.822,1.822,0,0,1,.473-.486C11.107,4.07,11.125,4.087,11.138,4.094Z"/><path class="cls-9" d="M14.327,9.869A3.989,3.989,0,0,0,15.952,9.1a3.792,3.792,0,0,0,.772-.887c.034-.052.054-.136.149-.116a.323.323,0,0,0,.023.064c.364.506.733,1.008,1.089,1.52a1.385,1.385,0,0,1,.281.426c-.009.014-.014.034-.027.043q-1.188.852-2.376,1.7a.146.146,0,0,1-.159.021,3.586,3.586,0,0,0-.382-.585c-.212-.323-.446-.632-.677-.941A2.326,2.326,0,0,1,14.327,9.869Z"/><path class="cls-11" d="M12.939,10.1l.377.074c.034.132-.055.233-.1.337-.269.594-.519,1.2-.795,1.788-.218.465-.418.938-.628,1.406s-.424.924-.612,1.4c-.169.423-.375.832-.563,1.247-.052.115-.1.23-.146.348a.12.12,0,0,1-.177.081c-.1-.053-.225-.059-.3-.16.154-.064.134-.231.193-.346.161-.321.289-.659.435-.987.187-.418.381-.832.569-1.25q.26-.578.512-1.16.343-.795.7-1.585a9.2,9.2,0,0,0,.431-1.012A.383.383,0,0,1,12.939,10.1Z"/><path class="cls-10" d="M15.7,11.871a.146.146,0,0,0,.159-.021q1.187-.853,2.376-1.7c.013-.009.018-.029.027-.043l.339.036c.208.054.428.038.632.11-.36.264-.717.531-1.08.792-.818.59-1.639,1.175-2.457,1.764a.917.917,0,0,0-.109.107c-.061-.181.069-.334.073-.508S15.792,12.057,15.7,11.871Z"/><path class="cls-11" d="M22.77,17.237a2.9,2.9,0,0,1,.656-.065c.141-.014.283-.023.425-.037a.161.161,0,0,0,.166-.205c-.038-.347-.07-.7-.1-1.043-.027-.309-.048-.618-.07-.926-.026-.365-.051-.729-.078-1.094-.021-.289-.045-.578-.066-.868-.014-.189-.024-.378-.036-.567.145.009.326-.053.38.159a1.345,1.345,0,0,1,.046.357c0,.259.065.51.063.767,0,.2.035.385.047.577.044.7.093,1.407.157,2.109.021.224.025.45.056.674.017.121-.032.183-.18.206-.425.064-.858.034-1.281.114A.141.141,0,0,1,22.77,17.237Z"/><path class="cls-11" d="M18.519,16.9a.284.284,0,0,1-.051-.005c-.385-.087-.381-.094-.273-.467.115-.4.21-.8.316-1.2a5.576,5.576,0,0,0,.15-.545.648.648,0,0,1,.34-.431,6.49,6.49,0,0,0,.627-.454.379.379,0,0,1,.324-.081c.378.058.762.027,1.141.07.312.036.627.009.938.062.091.016.124.043.11.13l-1.09-.068c-.221-.014-.443-.02-.662-.047a.615.615,0,0,0-.443.141c-.229.16-.454.326-.684.485a.572.572,0,0,0-.206.364c-.118.434-.252.865-.352,1.3A4.193,4.193,0,0,0,18.519,16.9Z"/><path class="cls-11" d="M16.506,7.093l-.077-.039c.036-.225.089-.449.1-.676A3.126,3.126,0,0,0,16.2,4.641a3.655,3.655,0,0,0-.839-1,1.935,1.935,0,0,0-.292-.176.25.25,0,0,1-.129-.131,1.512,1.512,0,0,1,.588.292,2.771,2.771,0,0,1,.89.854,2.878,2.878,0,0,1,.5,1.357A3.335,3.335,0,0,1,16.852,7c-.044.166-.121.2-.265.118A.31.31,0,0,0,16.506,7.093Z"/><path class="cls-12" d="M20.552,19.528c.073.012.094-.035.118-.093.17-.4.341-.808.517-1.21a.161.161,0,0,0-.045-.2.778.778,0,0,1,.287.091c.216.086.2.088.118.315-.137.4-.333.771-.488,1.162-.03.076-.078.13-.151.086C20.794,19.614,20.653,19.618,20.552,19.528Z"/><path class="cls-11" d="M18.605,10.139l-.339-.036a1.385,1.385,0,0,0-.281-.426c-.356-.512-.725-1.014-1.089-1.52a.323.323,0,0,1-.023-.064.1.1,0,0,0,0-.03c.184-.16.2-.16.3.039.161.3.385.549.57.83.2.3.422.579.623.876C18.448,9.92,18.564,10,18.605,10.139Z"/><path class="cls-11" d="M21.1,12.154c-.34.068-.517-.115-.692-.384-.3-.468-.653-.907-.982-1.359a1.191,1.191,0,0,1-.079-.15.909.909,0,0,1,.586.416c.3.467.647.907.97,1.361A.338.338,0,0,0,21.1,12.154Z"/><path class="cls-12" d="M14.926,3.324,14.842,3.3C14.872,3.3,14.905,3.289,14.926,3.324Z"/><path class="cls-13" d="M21.037,18.974"/><path class="cls-12" d="M14.8,3.288l-.059-.021A.045.045,0,0,1,14.8,3.288Z"/><path class="cls-10" d="M14.947,6.072a1.479,1.479,0,1,1-1.484-1.5A1.483,1.483,0,0,1,14.947,6.072Z"/><path class="cls-9" d="M10,16.618c-.227-.033-.377-.211-.566-.315a4.124,4.124,0,0,1-1.308-1.124,5.957,5.957,0,0,1-.721-1.2,3.24,3.24,0,0,1-.363-1.154c-.01-.2-.057-.406-.081-.611a1.107,1.107,0,0,1,.172-.584c.316-.727.648-1.448.968-2.173s.632-1.468.96-2.2c.163-.365.317-.733.474-1.1.023-.054.035-.124.112-.137a.206.206,0,0,1,.059.189,3.55,3.55,0,0,0,1.413,3.154,2.974,2.974,0,0,0,1.689.611.128.128,0,0,1,.135.127.383.383,0,0,0-.1.178,9.2,9.2,0,0,1-.431,1.012q-.356.791-.7,1.585-.252.582-.512,1.16c-.188.418-.382.832-.569,1.25-.146.328-.274.666-.435.987C10.13,16.387,10.15,16.554,10,16.618Z"/><line class="cls-14" x1="16.79" y1="7.123" x2="17.083" y2="7.962"/><polygon class="cls-15" points="16.873 8.093 16.654 7.592 16.422 7.06 16.796 7.117 17.095 7.969 16.873 8.093"/><path class="cls-15" d="M16.678,7.676"/><path class="cls-15" d="M16.643,7.6"/><path class="cls-15" d="M16.706,7.611"/><polyline class="cls-15" points="16.873 8.093 16.643 7.601 16.422 7.06"/><polygon class="cls-15" points="12.939 10.1 13.316 10.174 13.904 9.559 13.715 9.306 12.939 10.1"/></g></svg>